<svg width="847" height="289" viewBox="0 0 847 289" fill="none" xmlns="http://www.w3.org/2000/svg">
<path d="M335.723 128.783C333.773 127.536 331.852 126.317 329.93 125.154C329.472 124.877 329.013 124.572 328.525 124.267C328.482 124.26 328.442 124.241 328.411 124.212L328.239 124.128C327.816 123.844 327.376 123.585 326.92 123.353C326.059 122.799 325.17 122.3 324.282 121.801C323.893 121.55 323.491 121.319 323.077 121.109C322.217 120.61 321.385 120.139 320.554 119.668C319.952 119.336 319.378 119.003 318.776 118.698L316.969 117.701C310.837 114.416 304.518 111.466 298.044 108.863C296.84 108.392 295.664 107.921 294.489 107.506C292.997 106.952 291.535 106.425 290.101 105.954C287.205 104.984 284.366 104.126 281.614 103.405C281.602 103.395 281.589 103.387 281.574 103.382C281.559 103.377 281.543 103.376 281.528 103.378C280.18 103.017 278.832 102.685 277.513 102.408C275.162 101.882 272.896 101.438 270.66 101.106C270.586 101.082 270.508 101.072 270.43 101.078C269.857 100.967 269.312 100.884 268.739 100.829C268.684 100.806 268.625 100.797 268.567 100.801C267.649 100.663 266.731 100.552 265.842 100.469C263.348 100.192 260.91 100.053 258.559 99.9976C254.977 99.9123 251.394 100.07 247.835 100.469C205.884 105.234 186.385 143.827 177.955 169.37C177.926 169.481 177.897 169.564 177.869 169.675C177.839 169.746 177.82 169.821 177.811 169.897C177.811 169.952 177.782 170.008 177.782 170.063H177.754C177.737 170.108 177.727 170.154 177.725 170.202C177.152 171.947 176.664 173.609 176.205 175.216C175.833 176.463 175.517 177.682 175.202 178.818C162.556 159.397 159.087 137.399 159.459 118.033C159.459 117.562 159.488 117.119 159.488 116.676C159.488 116.233 159.517 115.762 159.545 115.318C159.545 114.653 159.574 113.989 159.631 113.351C159.631 112.963 159.66 112.576 159.689 112.188C159.717 111.689 159.746 111.218 159.775 110.747C159.77 110.654 159.78 110.56 159.803 110.47C159.889 109.002 160.004 107.561 160.148 106.148C160.176 106.01 160.176 105.871 160.205 105.76C160.32 104.513 160.463 103.267 160.606 102.048C160.664 101.604 160.721 101.189 160.778 100.773C160.864 100.053 160.95 99.3604 161.065 98.6678C161.18 97.8366 161.295 97.0332 161.438 96.2297C161.495 95.731 161.581 95.2601 161.667 94.7891C161.839 93.8194 161.983 92.8774 162.155 91.9355C162.212 91.603 162.269 91.2983 162.327 90.9935C162.36 90.8852 162.379 90.7738 162.384 90.6611C162.499 90.1624 162.585 89.6637 162.7 89.1927C162.843 88.4447 162.986 87.6966 163.158 86.9763C163.33 86.256 163.474 85.5634 163.617 84.8708C163.847 83.7903 164.105 82.7652 164.363 81.7401C164.449 81.3522 164.535 80.9644 164.649 80.6042C165.108 78.7757 165.567 77.1134 165.997 75.5896C166.018 75.465 166.057 75.3439 166.112 75.2295C166.198 74.9247 166.284 74.62 166.37 74.3429C166.456 74.0659 166.513 73.7888 166.599 73.5118C166.635 73.4428 166.655 73.3672 166.657 73.2901C166.915 72.5144 167.144 71.7941 167.345 71.1292C167.374 71.046 167.402 70.9352 167.431 70.8521C167.517 70.5751 167.603 70.3257 167.689 70.1041C167.775 69.8547 167.861 69.6054 167.918 69.3838C167.976 69.1621 168.033 69.0236 168.09 68.8574C168.148 68.6911 168.205 68.5249 168.262 68.3587C168.265 68.3376 168.275 68.3182 168.291 68.3033C168.377 68.0539 168.435 67.86 168.521 67.6661C168.607 67.4721 168.664 67.2505 168.721 67.0843C168.922 66.5579 169.037 66.2254 169.094 66.0869C169.11 66.0725 169.12 66.0528 169.123 66.0315C170.155 64.3138 171.245 62.6515 172.392 61.0446L172.449 60.9892C183.482 45.6476 200.242 35.0372 219.205 31.3895C238.168 27.7417 257.856 31.3406 274.129 41.4295C274.192 41.4581 274.25 41.4955 274.302 41.5404C284.177 47.7491 292.375 56.1454 298.216 66.0315L322.79 107.173L335.723 128.783Z" fill="url(#paint0_linear_1_2)"/>
<path d="M342.404 230.515C340.798 230.626 339.164 230.709 337.587 230.792C336.927 230.847 336.297 230.875 335.666 230.903C335.637 230.93 335.637 230.93 335.608 230.903C335.505 230.926 335.399 230.935 335.293 230.93C335.093 230.953 334.892 230.963 334.69 230.958C334.549 230.981 334.405 230.99 334.261 230.986C332.856 231.069 331.451 231.124 330.074 231.152C329.922 231.174 329.769 231.184 329.615 231.18C327.694 231.263 325.773 231.318 323.88 231.374C322.275 231.429 320.669 231.457 319.092 231.484C318.059 231.512 317.027 231.512 315.995 231.512C300.288 231.725 284.587 230.789 269.026 228.714C269.284 228.465 269.571 228.243 269.829 227.966H269.857C270.259 227.606 270.631 227.273 271.004 226.913C271.664 226.304 272.295 225.722 272.897 225.14C272.92 225.115 272.939 225.087 272.954 225.057C326.69 173.443 292.08 128.229 263.836 104.347C263.795 104.294 263.747 104.247 263.692 104.208C263.664 104.153 263.635 104.153 263.606 104.125C263.577 104.098 263.606 104.098 263.577 104.07L263.549 104.042C263.032 103.627 262.545 103.183 262.029 102.796C260.853 101.826 259.706 100.884 258.559 99.9973C260.911 100.053 263.348 100.191 265.843 100.468C266.732 100.551 267.649 100.662 268.567 100.801C268.626 100.796 268.685 100.806 268.739 100.828C269.312 100.884 269.857 100.967 270.431 101.078C270.508 101.072 270.586 101.081 270.66 101.106C272.897 101.438 275.162 101.881 277.513 102.408C278.832 102.712 280.18 103.017 281.528 103.377C281.543 103.375 281.559 103.377 281.574 103.382C281.589 103.387 281.602 103.394 281.614 103.405C284.367 104.125 287.205 104.956 290.102 105.954C291.535 106.425 292.998 106.951 294.489 107.505C295.664 107.921 296.84 108.392 298.044 108.863C304.518 111.465 310.837 114.416 316.97 117.701L318.776 118.698C319.378 119.003 319.952 119.335 320.554 119.668C321.386 120.139 322.217 120.61 323.077 121.108C323.491 121.319 323.893 121.55 324.282 121.801C325.171 122.3 326.06 122.798 326.92 123.352C327.376 123.584 327.816 123.843 328.239 124.128L328.411 124.211C328.443 124.24 328.482 124.26 328.526 124.267C329.013 124.571 329.472 124.876 329.931 125.153C331.852 126.317 333.773 127.536 335.723 128.783L339.795 135.598C339.795 135.598 339.795 135.626 339.852 135.653C339.849 135.675 339.853 135.697 339.863 135.717C339.873 135.737 339.889 135.753 339.91 135.764L348.397 149.949C355.91 162.4 359.358 176.752 358.288 191.127C357.219 205.502 351.683 219.23 342.404 230.515Z" fill="url(#paint1_linear_1_2)"/>
<path d="M342.405 230.515C335.478 239.133 326.592 246.095 316.432 250.861C306.274 255.627 295.115 258.069 283.822 257.998H183.518C173.229 258.044 163.042 256.016 153.61 252.041C153.588 252.039 153.568 252.03 153.553 252.014C153.513 252.015 153.473 252.005 153.438 251.986C143.859 247.887 135.279 241.887 128.257 234.375C121.235 226.863 115.927 218.008 112.679 208.384C109.431 198.761 108.316 188.584 109.404 178.517C110.493 168.449 113.763 158.716 119 149.949L122.498 144.048C122.642 143.854 122.728 143.743 122.728 143.743L141.539 112.243L169.095 66.0866C169.037 66.2251 168.923 66.5576 168.722 67.084C168.665 67.2502 168.579 67.4441 168.521 67.6658C168.464 67.8874 168.378 68.0537 168.292 68.303C168.276 68.318 168.266 68.3373 168.263 68.3584C168.206 68.5246 168.149 68.6632 168.091 68.8571C168.034 69.051 167.977 69.1895 167.919 69.3835C167.862 69.5774 167.776 69.8545 167.69 70.1038C167.604 70.3532 167.518 70.5748 167.432 70.8518C167.403 70.935 167.374 71.0458 167.346 71.1289C167.145 71.7938 166.916 72.5141 166.658 73.2899C166.656 73.3669 166.636 73.4425 166.6 73.5115C166.514 73.7885 166.428 74.0656 166.371 74.3426C166.313 74.6197 166.199 74.9244 166.113 75.2292C166.058 75.3436 166.019 75.4647 165.998 75.5894C165.568 77.1131 165.109 78.7754 164.65 80.6039C164.535 80.9641 164.449 81.352 164.363 81.7398C164.105 82.7649 163.847 83.79 163.618 84.8705C163.475 85.5631 163.303 86.2557 163.159 86.976C163.016 87.6964 162.844 88.4444 162.7 89.1924C162.586 89.6634 162.499 90.1621 162.385 90.6608C162.38 90.7735 162.361 90.8852 162.328 90.9933C162.27 91.298 162.213 91.6028 162.156 91.9352C161.984 92.8772 161.84 93.8191 161.668 94.7888C161.582 95.2598 161.496 95.7308 161.439 96.2295C161.295 97.0329 161.181 97.8363 161.066 98.6675C160.951 99.3601 160.865 100.053 160.779 100.773C160.722 101.189 160.664 101.604 160.607 102.047L160.263 104.956C160.263 105.206 160.234 105.483 160.206 105.76C160.177 105.871 160.177 106.009 160.148 106.148C160.005 107.561 159.89 109.001 159.804 110.47C159.781 110.56 159.771 110.654 159.775 110.747C159.747 111.218 159.718 111.689 159.689 112.187C159.661 112.575 159.632 112.963 159.632 113.351C159.575 113.988 159.546 114.653 159.546 115.318C159.518 115.761 159.489 116.232 159.489 116.676C159.489 117.119 159.46 117.562 159.46 118.033C159.087 137.399 162.557 159.396 175.202 178.818C175.776 179.704 176.378 180.591 176.98 181.45C177.066 181.544 177.143 181.646 177.21 181.754C177.325 181.893 177.382 181.976 177.382 181.976C192.981 203.835 220.881 221.982 269.026 228.714C284.587 230.789 300.288 231.725 315.995 231.512C317.027 231.512 318.06 231.512 319.092 231.484C320.669 231.457 322.275 231.429 323.881 231.374C325.773 231.318 327.695 231.263 329.616 231.18C329.769 231.184 329.923 231.174 330.075 231.152C331.451 231.124 332.856 231.069 334.261 230.986C334.405 230.99 334.549 230.981 334.691 230.958C334.892 230.963 335.094 230.953 335.293 230.93C335.399 230.935 335.505 230.926 335.609 230.903C335.637 230.93 335.638 230.93 335.666 230.903C336.297 230.875 336.928 230.847 337.587 230.792C339.165 230.709 340.799 230.626 342.405 230.515Z" fill="url(#paint2_linear_1_2)"/>
<g style="mix-blend-mode:multiply" opacity="0.25">
<g style="mix-blend-mode:multiply" opacity="0.25">
<path d="M177.813 169.897C177.813 169.952 177.784 170.007 177.784 170.063C177.768 170.11 177.749 170.156 177.727 170.201C177.729 170.154 177.739 170.107 177.756 170.063C177.784 170.035 177.784 169.98 177.813 169.897Z" fill="black"/>
</g>
</g>
<g style="mix-blend-mode:multiply" opacity="0.25">
<g style="mix-blend-mode:multiply" opacity="0.25">
<path d="M328.413 124.206L328.241 124.123C327.438 123.735 324.943 122.516 321.129 120.632C316.484 118.277 309.659 115.174 301.372 111.96C297.215 110.353 292.655 108.83 287.781 107.361C282.689 105.882 277.508 104.706 272.268 103.843C268.88 103.293 265.462 102.942 262.031 102.79C260.855 101.82 259.708 100.878 258.561 99.9918C254.979 99.9064 251.396 100.064 247.837 100.463C205.886 105.228 186.387 143.821 177.957 169.365C178.043 169.06 178.157 168.644 178.272 168.146C178.616 166.844 179.075 164.876 179.878 162.438C180.623 159.973 181.684 157.036 182.917 153.684C183.605 152.021 184.322 150.248 185.097 148.364C185.957 146.536 186.874 144.624 187.821 142.63C188.91 140.662 189.943 138.612 191.176 136.534C192.495 134.484 193.699 132.323 195.247 130.245C196.746 128.059 198.364 125.95 200.093 123.929C200.954 122.876 201.843 121.795 202.789 120.77C203.735 119.745 204.767 118.776 205.771 117.778C207.85 115.735 210.042 113.802 212.338 111.988C214.729 110.16 217.228 108.467 219.822 106.918C222.478 105.36 225.247 103.989 228.109 102.818C229.542 102.264 230.947 101.599 232.438 101.1L237.055 99.7701L239.349 99.1329C240.123 98.939 240.84 98.8559 241.586 98.7174L246.03 97.997C249.124 97.5396 252.249 97.3083 255.378 97.3044C258.733 97.2778 262.085 97.4629 265.414 97.8585H265.472C268.081 98.1633 270.662 98.5788 273.185 99.0498C278.607 100.126 283.937 101.599 289.128 103.455C293.754 105.084 298.282 106.961 302.691 109.079C306.821 110.991 310.434 112.985 313.617 114.786C316.771 116.642 319.495 118.277 321.703 119.69C323.939 121.047 325.574 122.294 326.75 123.07C327.61 123.652 328.183 124.045 328.413 124.206Z" fill="black"/>
</g>
</g>
<g style="mix-blend-mode:multiply" opacity="0.25">
<g style="mix-blend-mode:multiply" opacity="0.25">
<path d="M303.493 176.131C302.949 180.521 301.911 184.841 300.396 189.013C298.996 192.875 297.23 196.604 295.12 200.151C294.145 201.869 293.112 203.448 292.051 204.944C291.048 206.495 289.958 207.88 288.897 209.21C286.861 211.953 284.653 214.169 282.818 216.22C280.84 218.159 279.119 219.821 277.628 221.151C274.617 223.672 272.897 225.141 272.897 225.141C272.92 225.116 272.939 225.088 272.954 225.057C326.69 173.443 292.08 128.229 263.836 104.348C263.795 104.294 263.747 104.248 263.692 104.209C263.663 104.154 263.635 104.154 263.606 104.126C263.577 104.098 263.606 104.098 263.577 104.07C263.721 104.154 264.151 104.486 264.868 104.985C265.728 105.594 267.018 106.481 268.567 107.7C272.907 111.068 276.998 114.724 280.811 118.643C283.369 121.272 285.772 124.037 288.008 126.927C290.561 130.156 292.861 133.564 294.89 137.122C297.111 140.953 298.972 144.968 300.453 149.119C301.936 153.453 302.982 157.916 303.579 162.445C304.081 166.995 304.052 171.586 303.493 176.131Z" fill="black"/>
</g>
</g>
<g style="mix-blend-mode:multiply" opacity="0.25">
<g style="mix-blend-mode:multiply" opacity="0.25">
<path d="M314.046 230.654C321.214 230.875 328.412 230.903 335.609 230.903C335.506 230.926 335.4 230.935 335.294 230.931C328.211 231.679 321.157 232.122 314.046 232.399C306.791 232.648 299.508 232.759 292.224 232.51C284.941 232.26 277.658 231.817 270.432 230.958C266.79 230.543 263.177 229.989 259.564 229.462C255.98 228.77 252.338 228.271 248.782 227.384L243.42 226.165L238.115 224.697C234.588 223.755 231.09 222.536 227.62 221.372C224.179 220.098 220.767 218.74 217.412 217.217C215.72 216.496 214.086 215.638 212.451 214.806C210.817 213.975 209.154 213.172 207.577 212.23C204.365 210.457 201.268 208.434 198.229 206.384C196.766 205.276 195.247 204.223 193.813 203.087L189.569 199.563L185.554 195.795L181.769 191.806L178.185 187.567L175.06 183.411L174.916 183.217L174.887 183.19L172.938 180.308L171.131 177.178C169.888 175.136 168.768 173.027 167.776 170.861C166.801 168.7 165.712 166.594 164.88 164.35L164.364 162.91C164.335 162.91 164.335 162.882 164.335 162.854L162.5 157.674L160.665 150.858C160.12 148.559 159.747 146.231 159.288 143.932C158.83 141.632 158.686 139.277 158.371 136.978C158.055 134.678 157.998 132.296 157.826 129.969C157.654 127.641 157.711 125.314 157.711 122.987C157.711 120.66 157.826 118.333 157.969 116.005C158.203 111.364 158.711 106.739 159.489 102.153C159.776 99.8535 160.292 97.6094 160.694 95.3099C161.095 93.0104 161.697 90.794 162.185 88.5499C162.787 86.3059 163.274 84.0341 163.991 81.8454C164.622 79.7121 165.281 77.662 165.998 75.5841C166.019 75.4597 166.058 75.3383 166.113 75.2239C163.984 84.1803 162.518 93.2722 161.726 102.43C161.554 104.702 161.353 106.974 161.296 109.273C161.238 111.573 161.066 113.817 161.124 116.116C161.124 118.388 161.095 120.66 161.267 122.932C161.382 125.203 161.439 127.475 161.726 129.719C162.013 131.963 162.07 134.263 162.5 136.479C162.93 138.696 163.131 140.967 163.676 143.184C164.221 145.4 164.622 147.589 165.224 149.778L167.174 156.261L169.611 162.577C170.443 164.655 171.533 166.65 172.479 168.672C173.474 170.697 174.585 172.667 175.805 174.573L176.207 175.211C175.834 176.457 175.518 177.676 175.203 178.812C175.834 179.81 176.522 180.779 177.21 181.749C177.325 181.888 177.382 181.971 177.382 181.971C192.981 203.83 220.882 221.976 269.027 228.709C269.285 228.459 269.571 228.238 269.829 227.961H269.858C270.26 227.601 270.632 227.268 271.005 226.908C272.209 227.102 273.414 227.268 274.618 227.434C280.525 228.265 286.461 228.921 292.425 229.401C299.622 229.961 306.82 230.46 314.046 230.654Z" fill="black"/>
</g>
</g>
<g style="mix-blend-mode:multiply" opacity="0.15">
<g style="mix-blend-mode:multiply" opacity="0.15">
<path d="M177.21 181.754C172.541 175.729 168.251 169.438 164.364 162.915C164.335 162.915 164.335 162.887 164.335 162.86C154.638 146.944 146.983 129.947 141.539 112.243L169.095 66.0866C169.038 66.2251 168.923 66.5576 168.723 67.084C168.665 67.2502 168.579 67.4441 168.522 67.6658C168.465 67.8874 168.379 68.0537 168.293 68.303C168.277 68.318 168.267 68.3373 168.264 68.3584C168.207 68.5246 168.149 68.6632 168.092 68.8571C168.035 69.051 167.977 69.1895 167.92 69.3835C167.862 69.5774 167.776 69.8545 167.69 70.1038C167.604 70.3532 167.518 70.5748 167.432 70.8518C167.404 70.935 167.375 71.0458 167.346 71.1289C167.146 71.7938 166.916 72.5141 166.658 73.2899C166.656 73.3669 166.637 73.4425 166.601 73.5115C166.515 73.7886 166.429 74.0656 166.371 74.3426C166.314 74.6197 166.199 74.9244 166.113 75.2292C166.058 75.3436 166.02 75.4647 165.999 75.5894C165.569 77.1131 165.11 78.7754 164.651 80.6039C164.536 80.9641 164.45 81.352 164.364 81.7398C164.106 82.7649 163.848 83.79 163.619 84.8705C163.303 86.2557 162.988 87.6964 162.701 89.1924C162.586 89.6634 162.5 90.1621 162.386 90.6608C162.38 90.7736 162.361 90.8852 162.328 90.9933C162.271 91.298 162.214 91.6028 162.156 91.9352C161.984 92.8495 161.812 93.8191 161.669 94.7888C161.583 95.2598 161.497 95.7308 161.439 96.2295C161.296 97.0329 161.181 97.8363 161.067 98.6675C160.952 99.3601 160.866 100.053 160.78 100.773C160.722 101.189 160.665 101.604 160.608 102.047L160.264 104.956C160.235 105.372 160.206 105.76 160.149 106.148C160.006 107.561 159.891 109.001 159.805 110.47C159.781 110.56 159.771 110.654 159.776 110.747C159.748 111.218 159.719 111.689 159.69 112.187C159.662 112.575 159.633 112.963 159.633 113.351C159.575 113.988 159.547 114.653 159.547 115.318C159.518 115.761 159.489 116.232 159.489 116.676C159.489 117.119 159.461 117.562 159.461 118.033C159.088 137.399 162.558 159.396 175.203 178.818C175.834 179.815 176.522 180.785 177.21 181.754Z" fill="black"/>
</g>
</g>
<g style="mix-blend-mode:multiply" opacity="0.15">
<g style="mix-blend-mode:multiply" opacity="0.15">
<path d="M342.405 230.515C340.799 230.626 339.165 230.709 337.588 230.792C336.928 230.847 336.298 230.875 335.667 230.903C335.638 230.93 335.638 230.93 335.609 230.903C335.506 230.926 335.4 230.935 335.294 230.931C335.094 230.954 334.893 230.963 334.692 230.958C334.55 230.981 334.406 230.99 334.262 230.986C332.857 231.069 331.452 231.124 330.075 231.152C329.923 231.174 329.77 231.184 329.616 231.18C327.695 231.263 325.774 231.318 323.881 231.374C322.276 231.429 320.67 231.457 319.093 231.485C318.061 231.512 317.028 231.512 315.996 231.512C300.289 231.725 284.588 230.789 269.027 228.714C269.285 228.465 269.571 228.243 269.829 227.966H269.858C271.177 227.855 272.783 227.661 274.618 227.44C291.967 225.112 331.05 216.192 355.739 181.755C356.542 180.674 357.316 179.538 358.062 178.402C360.046 197.078 354.431 215.768 342.405 230.515Z" fill="black"/>
</g>
</g>
<g style="mix-blend-mode:multiply" opacity="0.15">
<g style="mix-blend-mode:multiply" opacity="0.15">
<path d="M335.723 128.783C333.773 127.536 331.852 126.317 329.93 125.154C329.472 124.877 329.013 124.572 328.525 124.267C328.482 124.26 328.442 124.241 328.411 124.212L328.239 124.128C327.816 123.844 327.375 123.585 326.92 123.353C326.059 122.799 325.17 122.3 324.282 121.801C323.893 121.55 323.491 121.319 323.077 121.109C322.217 120.61 321.385 120.139 320.554 119.668C319.952 119.336 319.378 119.003 318.776 118.698L316.969 117.701C310.837 114.416 304.518 111.466 298.044 108.863C296.84 108.392 295.664 107.921 294.488 107.506C292.997 106.952 291.535 106.425 290.101 105.954C287.205 104.957 284.366 104.126 281.614 103.405C281.602 103.395 281.589 103.387 281.574 103.382C281.559 103.377 281.543 103.376 281.528 103.378C280.18 103.017 278.832 102.685 277.513 102.408C275.162 101.882 272.896 101.438 270.66 101.106C270.586 101.082 270.508 101.072 270.43 101.078C269.857 100.967 269.312 100.884 268.739 100.829C268.684 100.806 268.625 100.797 268.567 100.801C267.649 100.663 266.731 100.552 265.842 100.469C263.348 100.192 260.91 100.053 258.559 99.9976C254.977 99.9125 251.394 100.07 247.835 100.469L247.577 99.9976C253.456 98.8456 259.419 98.1322 265.412 97.8643H265.47C285.068 96.568 304.707 99.7571 322.79 107.173L335.723 128.783Z" fill="black"/>
</g>
</g>
<g style="mix-blend-mode:overlay" opacity="0.6">
<g style="mix-blend-mode:overlay" opacity="0.6">
<path d="M177.813 169.897C177.813 169.952 177.784 170.007 177.784 170.063C177.768 170.11 177.749 170.156 177.727 170.201C177.729 170.154 177.739 170.107 177.756 170.063C177.784 170.035 177.784 169.98 177.813 169.897Z" fill="white"/>
</g>
</g>
<g style="mix-blend-mode:multiply" opacity="0.25">
<g style="mix-blend-mode:multiply" opacity="0.25">
<path d="M342.405 230.515C335.479 239.133 326.592 246.095 316.433 250.861C306.274 255.627 295.115 258.069 283.822 257.999H216.351C216.351 257.999 231.405 256.835 253.972 256.031C259.621 255.81 265.757 255.561 272.209 255.422C278.632 255.173 285.658 255.283 292.195 254.508C299.066 253.595 305.773 251.767 312.124 249.078C318.66 246.293 324.714 242.556 330.075 237.996C332.775 235.793 335.287 233.384 337.587 230.792C339.947 228.16 342.103 225.363 344.039 222.426C347.774 216.769 350.688 210.645 352.699 204.223C354.546 198.179 355.587 191.932 355.796 185.634C355.796 184.331 355.796 183.029 355.739 181.755C355.71 180.093 355.624 178.458 355.452 176.823C355.191 174.095 354.76 171.384 354.161 168.706C353.08 163.958 351.534 159.319 349.545 154.853C347.738 150.892 345.817 147.456 344.383 144.603C341.86 139.643 340.254 136.513 339.91 135.765L348.398 149.95C355.911 162.4 359.358 176.752 358.289 191.127C357.22 205.502 351.683 219.231 342.405 230.515Z" fill="black"/>
</g>
</g>
<g style="mix-blend-mode:multiply" opacity="0.25">
<g style="mix-blend-mode:multiply" opacity="0.25">
<path d="M153.553 252.014C153.513 252.015 153.473 252.005 153.438 251.986C143.859 247.887 135.279 241.887 128.257 234.375C121.235 226.863 115.927 218.008 112.679 208.384C109.431 198.761 108.316 188.584 109.404 178.517C110.493 168.45 113.763 158.716 119 149.949L122.498 144.048C122.642 143.854 122.728 143.743 122.728 143.743C122.728 143.743 121.925 145.627 120.462 148.841C119.688 150.448 119.029 152.415 118.025 154.714C117.566 155.85 117.022 157.069 116.563 158.344C116.19 159.618 115.788 160.976 115.358 162.361C114.454 165.363 113.745 168.416 113.236 171.503C112.905 173.177 112.694 174.872 112.606 176.573C112.379 178.32 112.254 180.078 112.233 181.837C112.233 183.638 112.262 185.467 112.262 187.323C112.434 189.151 112.634 191.008 112.806 192.892C112.993 194.775 113.31 196.645 113.753 198.488L114.326 201.314C114.527 202.228 114.871 203.142 115.158 204.057C115.76 205.857 116.104 207.769 116.878 209.515C117.595 211.288 118.312 213.061 119.029 214.806C120.654 218.153 122.473 221.409 124.477 224.558C125.403 226.088 126.428 227.559 127.545 228.963C128.635 230.376 129.696 231.734 130.699 233.064C131.875 234.31 132.993 235.502 134.083 236.665C134.628 237.275 135.144 237.884 135.689 238.411C136.234 238.937 136.807 239.436 137.381 239.934C138.47 240.96 139.56 241.901 140.564 242.816C141.542 243.67 142.566 244.475 143.632 245.226C145.285 246.569 147.018 247.818 148.822 248.966C151.546 250.684 153.209 251.792 153.553 252.014Z" fill="black"/>
</g>
</g>
<g style="mix-blend-mode:overlay" opacity="0.6">
<g style="mix-blend-mode:overlay" opacity="0.6">
<path d="M274.301 41.5404C274.301 41.5404 272.609 40.9309 269.684 39.7396C267.958 39.0154 266.186 38.3955 264.38 37.8833C263.376 37.5509 262.286 37.1907 261.168 36.8305C259.992 36.5535 258.788 36.2488 257.498 35.9163C254.974 35.2237 252.164 34.8081 249.239 34.3094C247.746 34.02 246.231 33.844 244.709 33.783C243.132 33.6999 241.583 33.3951 239.949 33.3674C238.314 33.3397 236.708 33.3397 235.045 33.312C233.382 33.2843 231.719 33.506 230.027 33.5337L227.504 33.6722L224.98 34.0324C223.289 34.3094 221.568 34.4202 219.905 34.8081L214.916 35.8609C213.253 36.221 211.675 36.8306 210.041 37.3016C208.438 37.7467 206.867 38.2927 205.338 38.9361C203.819 39.5456 202.241 40.0443 200.808 40.7369C197.998 42.233 195.073 43.3966 192.635 45.0312C191.374 45.8069 190.112 46.4995 188.936 47.2753C187.761 48.051 186.7 48.8544 185.639 49.5748C183.694 50.9447 181.828 52.4152 180.047 53.9798C179.244 54.6724 178.47 55.3097 177.753 55.8915C177.094 56.5287 176.492 57.1382 175.947 57.6646C174.026 59.5485 172.735 60.7121 172.448 60.9892C183.481 45.6476 200.241 35.0372 219.205 31.3895C238.167 27.7417 257.856 31.3406 274.129 41.4295C274.191 41.4581 274.249 41.4955 274.301 41.5404Z" fill="white"/>
</g>
</g>
<path d="M396.464 36H472.576C478.299 36.0031 483.921 37.4599 488.878 40.2242C493.834 42.9886 497.952 46.9634 500.817 51.7502L503.722 56.6262L503.748 56.6512V56.6761C503.748 56.701 503.777 56.7288 503.802 56.7786L546.528 128.274C549.385 133.068 550.889 138.503 550.889 144.035C550.889 149.567 549.385 155.002 546.528 159.796L500.826 236.262C497.636 241.605 492.885 245.92 487.168 248.665C487.11 248.693 487.057 248.727 487.008 248.768C486.977 248.778 486.95 248.796 486.93 248.82H486.901C486.888 248.834 486.87 248.843 486.85 248.845C482.408 250.942 477.529 252.033 472.584 252.034H397.565C396.15 252.047 394.736 251.945 393.339 251.729C420.411 238.453 441.605 216.171 453.017 188.989H453.705L473.12 156.522C475.393 152.714 476.589 148.397 476.589 144.002C476.589 139.607 475.393 135.289 473.12 131.482L453.705 99.0146H453.518C442.502 71.9703 421.833 49.6277 395.249 36.0277C395.67 36 396.04 36 396.464 36Z" fill="url(#paint3_linear_1_2)"/>
<path d="M396.462 188.997H453.023C441.612 216.18 420.418 238.462 393.345 251.738C392.001 251.588 390.668 251.357 389.354 251.048C386.034 250.271 382.855 249.015 379.923 247.322C375.373 244.779 371.535 241.201 368.741 236.9C365.946 232.599 364.281 227.704 363.888 222.639C363.591 218.33 364.213 214.007 365.715 209.94C367.218 205.872 369.569 202.146 372.622 198.992C375.676 195.838 379.368 193.323 383.469 191.604C387.57 189.885 391.992 188.998 396.462 188.997Z" fill="url(#paint4_linear_1_2)"/>
<path d="M395.247 36.0277C421.836 49.6282 442.509 71.9742 453.526 99.023H397.564C389.145 99.1205 380.997 96.143 374.752 90.6863C368.507 85.2296 364.624 77.6958 363.88 69.5921C363.482 63.8533 364.719 58.1187 367.456 53.0108C367.456 53.0042 367.459 52.9978 367.463 52.9932C367.468 52.9885 367.475 52.9859 367.482 52.9859C367.496 52.962 367.505 52.9356 367.507 52.9083C369.766 48.7626 372.95 45.1535 376.829 42.342C380.708 39.5305 385.185 37.5867 389.937 36.6511C391.685 36.2983 393.462 36.0898 395.247 36.0277Z" fill="url(#paint5_linear_1_2)"/>
<g style="mix-blend-mode:multiply" opacity="0.08">
<g style="mix-blend-mode:multiply" opacity="0.08">
<path d="M427.099 188.997H453.015C441.606 216.178 420.415 238.46 393.346 251.738C392.002 251.588 390.669 251.357 389.354 251.048C404.268 231.775 416.927 210.964 427.099 188.997Z" fill="black"/>
</g>
</g>
<g style="mix-blend-mode:multiply" opacity="0.08">
<g style="mix-blend-mode:multiply" opacity="0.08">
<path d="M395.247 36.0277C421.836 49.6282 442.509 71.9742 453.526 99.023H427.214C417.148 76.9929 404.65 56.0774 389.937 36.64C391.686 36.2909 393.462 36.0861 395.247 36.0277Z" fill="black"/>
</g>
</g>
<g style="mix-blend-mode:screen" opacity="0.4">
<g style="mix-blend-mode:screen" opacity="0.4">
<path d="M472.469 43.6574H472.575C476.903 43.6677 481.154 44.7729 484.903 46.8629C488.653 48.9529 491.77 51.955 493.946 55.5705L539.651 132.094C541.815 135.723 542.954 139.838 542.954 144.026C542.954 148.215 541.815 152.33 539.651 155.959L504.117 215.441L503.985 215.646L493.949 232.441C491.946 235.782 489.137 238.607 485.761 240.673C482.385 242.74 478.542 243.987 474.559 244.31C495.537 215.873 506.969 181.898 507.31 146.979C507.65 112.061 496.881 77.8833 476.46 49.0709L476.277 48.8133L476.196 48.6858C474.986 46.9764 473.736 45.3169 472.469 43.6574Z" fill="white"/>
</g>
</g>
<g style="mix-blend-mode:screen" opacity="0.6">
<g style="mix-blend-mode:screen" opacity="0.6">
<path d="M486.893 248.829C486.922 248.801 486.948 248.801 487 248.776C486.97 248.786 486.942 248.805 486.922 248.829H486.893Z" fill="white"/>
</g>
</g>
<g style="mix-blend-mode:multiply" opacity="0.25">
<g style="mix-blend-mode:multiply" opacity="0.25">
<path d="M503.801 56.7786L546.527 128.274C549.384 133.068 550.888 138.503 550.888 144.035C550.888 149.567 549.384 155.002 546.527 159.796L500.825 236.262C497.635 241.605 492.884 245.92 487.167 248.665C487.537 248.463 488.171 248.078 489.043 247.518C491.02 246.177 492.853 244.645 494.511 242.947C497.041 240.324 499.119 237.325 500.664 234.065C502.672 230.288 504.946 226.03 507.509 221.431C512.527 212.164 518.526 201.445 525.075 190.036C528.379 184.343 531.708 178.422 535.246 172.474C537.018 169.487 538.787 166.501 540.557 163.489L543.226 158.971C544.068 157.598 544.8 156.165 545.417 154.685C547.915 148.874 548.334 142.425 546.607 136.358C545.709 133.33 544.384 130.436 542.67 127.756C540.981 124.819 539.315 121.938 537.678 119.076C531.126 107.642 525.13 96.9118 520.109 87.6806C510.592 70.3568 504.521 58.2331 503.801 56.7786Z" fill="black"/>
</g>
</g>
<g style="mix-blend-mode:multiply" opacity="0.25">
<g style="mix-blend-mode:multiply" opacity="0.25">
<path d="M395.248 36.0277L400.269 38.3993L405.207 41.0035L409.99 43.8377L414.638 46.8853L419.132 50.1794L423.49 53.6508L427.665 57.3522L431.654 61.2308L435.456 65.2896L439.078 69.5284L442.484 73.9168L445.682 78.4604L448.667 83.1564L451.439 87.9826L453.951 92.9334L455.563 96.5351L456.222 97.6072C460.687 104.855 465.203 112.08 469.591 119.38L476.186 130.382C478.592 134.549 479.865 139.238 479.885 144.01C479.873 146.388 479.553 148.755 478.933 151.055C478.618 152.199 478.235 153.324 477.786 154.424C477.334 155.51 476.813 156.568 476.226 157.591L469.596 168.618C465.209 175.918 460.693 183.14 456.254 190.391L455.394 191.82H454.918L453.386 195.145L450.806 200.098L447.953 204.922L444.887 209.618L441.587 214.161L438.1 218.578L434.401 222.789L430.49 226.823L426.421 230.676L422.142 234.353L417.678 237.802L413.107 241.071L408.353 244.083L403.492 246.889L398.472 249.444L393.347 251.74L398.182 248.906L402.83 245.895L407.375 242.703L411.759 239.359L415.986 235.838L420.055 232.161L423.94 228.308L427.668 224.351L431.207 220.218L434.536 215.929L437.707 211.563L440.638 207.047L443.385 202.426L445.922 197.677L448.248 192.854L449.885 189H453.716L473.132 156.533C475.404 152.725 476.601 148.408 476.601 144.013C476.601 139.618 475.404 135.3 473.132 131.493L453.716 99.0257H450.413L448.801 95.1471L446.556 90.3486L444.125 85.6388L441.458 81.0176L438.59 76.5266L435.511 72.1271L432.262 67.8301L428.821 63.6966L425.173 59.7126L421.365 55.8589L417.403 52.1326L413.253 48.5863L408.975 45.1897L404.536 41.9732L399.948 38.9257L395.248 36.0277Z" fill="black"/>
</g>
</g>
<g style="mix-blend-mode:screen" opacity="0.4">
<g style="mix-blend-mode:screen" opacity="0.4">
<path d="M476.456 49.0712L480.129 53.9694L483.828 59.4328C486.205 63.1582 488.441 66.9446 490.538 70.7917C492.626 74.6704 494.528 78.635 496.245 82.6854C497.988 86.7192 499.545 90.8279 500.947 94.9891C503.797 103.311 505.918 111.849 507.287 120.514C508.001 124.852 508.503 129.218 508.844 133.61C509.214 138.076 509.349 142.312 509.32 146.753C509.32 151.144 509.111 155.535 508.767 159.924L508.079 166.484L507.129 172.992L505.888 179.478L504.408 185.908L502.665 192.264L500.629 198.569L498.358 204.772L495.82 210.867L493.047 216.89L490.036 222.786L486.742 228.535L483.229 234.175L479.501 239.664L477.227 242.753C483.306 241.627 488.722 238.328 492.394 233.513C493.449 232.059 494.346 230.552 495.353 229.02L498.22 224.476L503.978 215.646L493.942 232.441C491.939 235.783 489.13 238.607 485.754 240.673C482.378 242.74 478.535 243.987 474.552 244.31C495.53 215.874 506.963 181.898 507.303 146.98C507.643 112.061 496.874 77.8836 476.453 49.0712H476.456Z" fill="white"/>
</g>
</g>
<g style="mix-blend-mode:screen" opacity="0.5">
<g style="mix-blend-mode:screen" opacity="0.5">
<path d="M396.463 188.997H421.745C421.745 188.997 414.863 189.865 404.52 190.452C401.957 190.632 399.129 190.784 396.205 190.912C393.311 191.107 390.453 191.647 387.697 192.519C381.762 194.459 376.552 198.046 372.717 202.833C370.8 205.252 369.255 207.925 368.129 210.771C367.111 213.531 366.454 216.403 366.174 219.32C366.174 220.113 366.148 220.877 366.148 221.645L366.122 222.664L366.202 223.712C366.275 225.077 366.46 226.434 366.756 227.77C367.305 230.263 368.166 232.682 369.319 234.974C371.112 238.476 373.516 241.652 376.425 244.366C377.509 245.363 378.38 246.128 379.005 246.612C379.481 246.97 379.797 247.225 379.929 247.327C375.379 244.784 371.541 241.207 368.747 236.905C365.952 232.604 364.287 227.709 363.894 222.645C363.596 218.335 364.217 214.013 365.719 209.945C367.221 205.877 369.571 202.15 372.624 198.996C375.678 195.841 379.369 193.326 383.469 191.606C387.57 189.886 391.992 188.999 396.463 188.997Z" fill="white"/>
</g>
</g>
<g style="mix-blend-mode:screen" opacity="0.5">
<g style="mix-blend-mode:screen" opacity="0.5">
<path d="M367.456 53.0105C367.35 53.318 366.98 54.44 366.53 56.227C365.816 59.0745 365.453 61.9937 365.449 64.9236C365.458 66.8416 365.643 68.7552 366.002 70.6419C366.168 71.6603 366.407 72.6665 366.716 73.6534C366.874 74.1382 367.003 74.648 367.163 75.1577C367.324 75.6675 367.562 76.1801 367.737 76.6898C368.603 78.7455 369.665 80.7192 370.908 82.5854C372.232 84.4846 373.764 86.2394 375.479 87.8188C377.158 89.4346 379.018 90.8647 381.025 92.0826C382.989 93.2767 385.068 94.2852 387.233 95.0941C388.262 95.495 389.315 95.8355 390.387 96.1137C391.391 96.4195 392.415 96.6584 393.453 96.8285C394.481 97.039 395.522 97.1925 396.57 97.2884L397.335 97.3659C397.441 97.3909 397.65 97.4158 397.65 97.4158L398.02 97.4407C398.522 97.4934 399.027 97.5183 399.5 97.5709C407.268 98.1832 412.421 99.0255 412.421 99.0255H397.564C389.145 99.123 380.997 96.1455 374.752 90.6888C368.507 85.232 364.624 77.6983 363.88 69.5946C363.482 63.8547 364.719 58.1192 367.456 53.0105Z" fill="white"/>
</g>
</g>
<path d="M745.311 34.0124V94.4979H639.978C638.707 94.4843 637.445 94.7125 636.265 95.17C635.086 95.6273 634.013 96.3044 633.107 97.1623C632.371 97.8628 631.77 98.6833 631.332 99.5861C632.312 84.2643 638.355 69.6427 648.583 57.8488C658.81 46.055 672.689 37.7044 688.198 34.0124H745.311Z" fill="url(#paint6_linear_1_2)"/>
<path d="M690.122 186.56C689.253 201.959 683.273 216.685 673.058 228.581C662.843 240.476 648.93 248.916 633.359 252.662H578.868V192.189H681.177C682.478 192.206 683.77 191.969 684.974 191.493C686.126 191.042 687.171 190.373 688.047 189.525C688.929 188.672 689.633 187.666 690.122 186.56Z" fill="url(#paint7_linear_1_2)"/>
<path d="M753.782 182.925C753.827 192.253 751.888 201.492 748.084 210.074C747.31 211.802 746.46 213.504 745.538 215.162C745.512 215.232 745.486 215.257 745.486 215.305C745.477 215.341 745.46 215.374 745.436 215.403C737.61 229.616 724.934 240.811 709.535 247.109C700.581 250.818 690.926 252.705 681.176 252.653H633.381L633.931 252.511C649.373 248.671 663.141 240.209 673.243 228.351C683.346 216.492 689.257 201.852 690.122 186.551V186.526C691.035 184.242 691.053 181.717 690.171 179.422C690.148 179.374 690.122 179.301 690.095 179.254C689.62 178.151 688.924 177.147 688.047 176.302C687.148 175.437 686.075 174.757 684.894 174.302C683.713 173.848 682.448 173.629 681.176 173.659H639.978C637.93 173.659 635.881 173.59 633.855 173.397C633.783 173.397 633.707 173.372 633.608 173.372C626.041 172.796 618.626 171.012 611.669 168.093C594.358 160.935 580.575 147.657 573.169 131.008C572.194 128.863 571.343 126.668 570.62 124.432C568.458 117.74 567.372 110.77 567.398 103.763C567.355 94.4137 569.319 85.1563 573.169 76.5693C580.617 59.971 594.392 46.7379 611.669 39.5819C616.712 37.4608 622.007 35.9452 627.436 35.0696C627.637 35.019 627.785 34.9968 627.884 34.9715C627.934 34.9593 627.984 34.9519 628.035 34.9493C631.982 34.3153 635.977 33.9977 639.978 34H688.198C672.689 37.6921 658.81 46.0426 648.583 57.8365C638.355 69.6303 632.312 84.2519 631.332 99.5738C631.227 99.7516 631.135 99.9367 631.059 100.128C630.566 101.276 630.319 102.508 630.334 103.751C630.32 105.051 630.574 106.342 631.082 107.548C631.135 107.682 631.202 107.81 631.283 107.931C631.713 108.892 632.333 109.764 633.108 110.5C634.009 111.363 635.082 112.043 636.262 112.5C637.442 112.958 638.706 113.184 639.978 113.164H681.176C690.905 113.115 700.543 114.969 709.502 118.613C726.921 125.649 740.778 138.961 748.101 155.696C749.068 157.865 749.912 160.083 750.627 162.341C752.743 169.012 753.806 175.95 753.782 182.925Z" fill="url(#paint8_linear_1_2)"/>
<g style="mix-blend-mode:multiply" opacity="0.16">
<g style="mix-blend-mode:multiply" opacity="0.16">
<path d="M690.121 186.56C689.252 201.959 683.272 216.685 673.057 228.581C662.842 240.476 648.929 248.916 633.358 252.662H618.167C630.914 246.899 642.168 238.484 651.111 228.026C660.055 217.569 666.466 205.331 669.878 192.199H681.169C682.471 192.215 683.763 191.978 684.966 191.503C686.118 191.051 687.163 190.382 688.04 189.534C688.924 188.679 689.631 187.67 690.121 186.56Z" fill="black"/>
</g>
</g>
<g style="mix-blend-mode:multiply" opacity="0.16">
<g style="mix-blend-mode:multiply" opacity="0.16">
<path d="M701.89 34.0124C687.822 44.0685 659.266 67.2786 652.069 94.4979H639.978C638.707 94.4843 637.445 94.7125 636.265 95.17C635.086 95.6273 634.013 96.3044 633.107 97.1623C632.371 97.8628 631.77 98.6833 631.332 99.5861C632.312 84.2643 638.355 69.6427 648.583 57.8488C658.81 46.055 672.689 37.7044 688.198 34.0124H701.89Z" fill="black"/>
</g>
</g>
<g style="mix-blend-mode:multiply" opacity="0.25">
<g style="mix-blend-mode:multiply" opacity="0.25">
<path d="M745.312 52.1089V94.5106H657.344C664.663 93.8144 672.008 93.3366 679.33 92.998C686.651 92.6595 693.996 92.3652 701.315 92.2544C708.66 92.0393 715.982 92.0646 723.327 91.9918C729.914 92.0646 736.442 92.0646 743.017 92.207C743.089 89.4477 743.142 86.6853 743.264 83.9038C743.389 80.3725 743.514 76.8443 743.741 73.3161C744.103 66.2471 744.588 59.1653 745.312 52.1089Z" fill="black"/>
</g>
</g>
<g style="mix-blend-mode:screen" opacity="0.7">
<g style="mix-blend-mode:screen" opacity="0.7">
<path d="M753.782 182.925C753.827 192.253 751.888 201.492 748.084 210.075C747.31 211.802 746.46 213.505 745.538 215.163C745.788 214.514 746.612 212.447 747.843 209.28C749.752 203.894 751.001 198.313 751.565 192.649C751.921 188.897 751.997 185.126 751.793 181.365C751.542 177.205 750.941 173.071 749.994 169.005C749.504 166.902 748.895 164.826 748.17 162.787C747.32 160.677 746.47 158.537 745.62 156.401C743.714 152.201 741.369 148.197 738.624 144.45C735.95 140.653 732.858 137.143 729.402 133.982C726.073 130.915 722.46 128.144 718.609 125.705C714.955 123.425 711.121 121.427 707.14 119.727C703.554 118.245 699.854 117.033 696.073 116.101C690.317 114.73 684.432 113.918 678.508 113.677C674.16 113.361 671.686 113.174 671.686 113.174H681.156C690.885 113.124 700.523 114.978 709.482 118.623C726.901 125.658 740.758 138.971 748.081 155.705C749.048 157.874 749.892 160.093 750.607 162.351C752.728 169.018 753.799 175.953 753.782 182.925Z" fill="white"/>
</g>
</g>
<g style="mix-blend-mode:multiply" opacity="0.25">
<g style="mix-blend-mode:multiply" opacity="0.25">
<path d="M625.487 252.653H578.868V206.929C579.441 210.745 579.79 214.523 580.165 218.355C580.465 222.171 580.742 225.987 580.916 229.778C581.167 233.594 581.216 237.413 581.364 241.23L581.466 250.156C584.487 250.204 587.51 250.204 590.534 250.276C594.407 250.422 598.281 250.469 602.177 250.71C609.947 251.071 617.717 251.621 625.487 252.653Z" fill="black"/>
</g>
</g>
<g style="mix-blend-mode:screen" opacity="0.7">
<g style="mix-blend-mode:screen" opacity="0.7">
<path d="M633.608 173.371C626.041 172.796 618.626 171.012 611.669 168.093C594.358 160.934 580.575 147.657 573.169 131.008C572.194 128.863 571.343 126.667 570.62 124.432C568.458 117.74 567.372 110.77 567.398 103.763C567.355 94.4134 569.319 85.156 573.169 76.569C580.618 59.9706 594.392 46.7375 611.669 39.5815C616.712 37.4604 622.007 35.9448 627.436 35.0692C624.713 35.6983 622.027 36.4673 619.389 37.3728C601.498 43.5117 586.696 55.9402 577.968 72.1516C572.196 82.797 569.479 94.727 570.096 106.715C570.289 112.739 571.375 118.706 573.32 124.435C573.893 125.897 574.444 127.362 574.994 128.802L575.392 129.881L575.494 130.147C575.517 130.192 575.534 130.24 575.544 130.289L575.794 130.818L576.742 132.859C578.004 135.501 579.448 138.059 581.064 140.516C584.127 145.195 587.741 149.52 591.834 153.404C595.549 156.882 599.616 159.994 603.975 162.695C607.696 164.963 611.598 166.945 615.644 168.622C618.802 169.912 622.06 170.963 625.387 171.767C628.098 172.434 630.842 172.97 633.608 173.371Z" fill="white"/>
</g>
</g>
<g style="mix-blend-mode:screen" opacity="0.7">
<g style="mix-blend-mode:screen" opacity="0.7">
<path d="M688.198 34.0124C672.689 37.7044 658.81 46.055 648.583 57.8488C638.355 69.6427 632.312 84.2643 631.332 99.5861C631.227 99.7639 631.135 99.9491 631.059 100.14L631.26 99.5387C631.184 97.6401 631.184 95.7225 631.184 93.8018C631.332 91.8842 631.556 89.9635 631.757 88.0174C632.086 86.1189 632.531 84.2203 632.906 82.3217C633.407 80.4231 634.082 78.6005 634.655 76.7051C635.314 74.8571 636.131 73.0788 636.928 71.2562C637.778 69.481 638.779 67.7754 639.678 66.0224C640.726 64.32 641.875 62.7125 642.972 61.0323C644.171 59.4501 645.419 57.887 646.671 56.3491C648.018 54.8619 649.444 53.4475 650.818 52.0045C652.316 50.6629 653.782 49.318 655.34 48.0207L660.211 44.4451C661.911 43.366 663.633 42.3566 665.382 41.325C667.207 40.4612 668.982 39.5246 670.804 38.6829L676.452 36.5723C678.429 36.0185 680.349 35.4679 682.299 34.9901C684.249 34.6104 686.225 34.3003 688.198 34.0124Z" fill="white"/>
</g>
</g>
<g style="mix-blend-mode:screen" opacity="0.7">
<g style="mix-blend-mode:screen" opacity="0.7">
<path d="M690.574 186.526C690.597 188.494 690.597 190.414 690.547 192.357C690.422 194.303 690.172 196.224 689.948 198.167C689.599 200.087 689.199 202.007 688.749 203.929C688.248 205.828 687.599 207.698 687.023 209.568C686.364 211.441 685.501 213.216 684.717 215.042C683.871 216.843 682.896 218.57 681.944 220.323C680.92 222.026 679.773 223.659 678.673 225.339C677.474 226.946 676.223 228.503 674.975 230.066C673.627 231.557 672.201 232.996 670.828 234.458C669.329 235.828 667.863 237.173 666.306 238.493L661.431 242.094C659.731 243.174 658.008 244.228 656.26 245.258L650.838 247.97L645.167 250.153L639.343 251.786C637.845 252.074 636.379 252.362 634.897 252.602L635.226 252.65L633.5 252.843C633.477 252.868 633.424 252.868 633.401 252.868L633.375 252.65L633.352 252.435L633.925 252.507C649.367 248.668 663.135 240.206 673.238 228.347C683.34 216.489 689.251 201.849 690.116 186.548V186.522C690.601 185.38 690.838 184.155 690.814 182.921C690.995 184.126 690.913 185.353 690.574 186.526Z" fill="white"/>
</g>
</g>
<defs>
<linearGradient id="paint0_linear_1_2" x1="159.433" y1="104.409" x2="335.723" y2="104.409" gradientUnits="userSpaceOnUse">
<stop stop-color="#FCFC53"/>
<stop offset="1" stop-color="#F8A700"/>
</linearGradient>
<linearGradient id="paint1_linear_1_2" x1="251.265" y1="100.392" x2="370.672" y2="206.042" gradientUnits="userSpaceOnUse">
<stop stop-color="#00F3FF"/>
<stop offset="0.238" stop-color="#00EFFC"/>
<stop offset="0.44" stop-color="#00E5F4"/>
<stop offset="0.629" stop-color="#00D3E7"/>
<stop offset="0.81" stop-color="#00BAD4"/>
<stop offset="0.983" stop-color="#009BBC"/>
<stop offset="1" stop-color="#0098BA"/>
</linearGradient>
<linearGradient id="paint2_linear_1_2" x1="109" y1="162.043" x2="342.405" y2="162.043" gradientUnits="userSpaceOnUse">
<stop stop-color="#F80300"/>
<stop offset="0.033" stop-color="#F81000"/>
<stop offset="0.158" stop-color="#F93F00"/>
<stop offset="0.288" stop-color="#FA6800"/>
<stop offset="0.419" stop-color="#FA8900"/>
<stop offset="0.554" stop-color="#FBA300"/>
<stop offset="0.693" stop-color="#FBB500"/>
<stop offset="0.838" stop-color="#FBC000"/>
<stop offset="1" stop-color="#FCC400"/>
</linearGradient>
<linearGradient id="paint3_linear_1_2" x1="540.333" y1="3370.94" x2="540.333" y2="3239.79" gradientUnits="userSpaceOnUse">
<stop stop-color="#F80300"/>
<stop offset="0.033" stop-color="#F81000"/>
<stop offset="0.158" stop-color="#F93F00"/>
<stop offset="0.288" stop-color="#FA6800"/>
<stop offset="0.419" stop-color="#FA8900"/>
<stop offset="0.554" stop-color="#FBA300"/>
<stop offset="0.693" stop-color="#FBB500"/>
<stop offset="0.838" stop-color="#FBC000"/>
<stop offset="1" stop-color="#FCC400"/>
</linearGradient>
<linearGradient id="paint4_linear_1_2" x1="461.32" y1="3189.06" x2="461.32" y2="3278.66" gradientUnits="userSpaceOnUse">
<stop stop-color="#3E6896"/>
<stop offset="0.247" stop-color="#355881"/>
<stop offset="0.75" stop-color="#1F324E"/>
<stop offset="1" stop-color="#131D32"/>
</linearGradient>
<linearGradient id="paint5_linear_1_2" x1="619.505" y1="3189.17" x2="619.505" y2="3278.77" gradientUnits="userSpaceOnUse">
<stop stop-color="#3E6896"/>
<stop offset="0.247" stop-color="#355881"/>
<stop offset="0.75" stop-color="#1F324E"/>
<stop offset="1" stop-color="#131D32"/>
</linearGradient>
<linearGradient id="paint6_linear_1_2" x1="745.311" y1="66.7992" x2="636.005" y2="66.7992" gradientUnits="userSpaceOnUse">
<stop stop-color="#EE0979"/>
<stop offset="0.322" stop-color="#F32555"/>
<stop offset="1" stop-color="#FF6A00"/>
</linearGradient>
<linearGradient id="paint7_linear_1_2" x1="574.529" y1="219.611" x2="679.553" y2="219.611" gradientUnits="userSpaceOnUse">
<stop stop-color="#EE0979"/>
<stop offset="0.322" stop-color="#F32555"/>
<stop offset="1" stop-color="#FF6A00"/>
</linearGradient>
<linearGradient id="paint8_linear_1_2" x1="660.59" y1="32.2508" x2="660.59" y2="258.558" gradientUnits="userSpaceOnUse">
<stop stop-color="#FCC400"/>
<stop offset="0.162" stop-color="#FBC000"/>
<stop offset="0.307" stop-color="#FBB500"/>
<stop offset="0.446" stop-color="#FBA300"/>
<stop offset="0.581" stop-color="#FA8900"/>
<stop offset="0.712" stop-color="#FA6800"/>
<stop offset="0.842" stop-color="#F93F00"/>
<stop offset="0.967" stop-color="#F81000"/>
<stop offset="1" stop-color="#F80300"/>
</linearGradient>
</defs>
</svg>
